{
    "asset" : {
        "generator" : "Khronos glTF Blender I/O v1.7.33",
        "version" : "2.0"
    },
    "scene" : 0,
    "scenes" : [
        {
            "name" : "Scene",
            "nodes" : [
                5
            ]
        }
    ],
    "nodes" : [
        {
            "name" : "HeadBone",
            "rotation" : [
                -0.1995116025209427,
                1.3596018062745577e-15,
                -4.756726568189151e-08,
                0.9798954725265503
            ],
            "scale" : [
                1,
                1,
                1.0000001192092896
            ],
            "translation" : [
                5.030671822311376e-15,
                2.1327767372131348,
                -1.1446417857996494e-07
            ]
        },
        {
            "name" : "MouthBone",
            "rotation" : [
                0.7484314441680908,
                1.0713656422797497e-14,
                1.7843996147348662e-07,
                0.6632121801376343
            ],
            "scale" : [
                1,
                1.0000001192092896,
                1
            ],
            "translation" : [
                -7.272483938843e-14,
                2.132776975631714,
                -2.6752537962693168e-08
            ]
        },
        {
            "children" : [
                0,
                1
            ],
            "name" : "UpperSpine",
            "rotation" : [
                0.253474622964859,
                1.377245756675749e-14,
                6.043305944558597e-08,
                0.9673420190811157
            ],
            "translation" : [
                -2.1316282072803006e-14,
                1.98823881149292,
                -4.35370339351108e-22
            ]
        },
        {
            "children" : [
                2
            ],
            "name" : "LowerSpine",
            "rotation" : [
                -0.09699379652738571,
                1.1864718629794879e-07,
                -1.1562555357613746e-08,
                0.9952850341796875
            ],
            "scale" : [
                1,
                1,
                1.0000001192092896
            ]
        },
        {
            "mesh" : 0,
            "name" : "male",
            "skin" : 0
        },
        {
            "children" : [
                4,
                3
            ],
            "name" : "Armature",
            "translation" : [
                0,
                -3.590708017349243,
                -0.23032502830028534
            ]
        }
    ],
    "animations" : [
        {
            "channels" : [
                {
                    "sampler" : 0,
                    "target" : {
                        "node" : 1,
                        "path" : "translation"
                    }
                },
                {
                    "sampler" : 1,
                    "target" : {
                        "node" : 1,
                        "path" : "rotation"
                    }
                },
                {
                    "sampler" : 2,
                    "target" : {
                        "node" : 1,
                        "path" : "scale"
                    }
                }
            ],
            "name" : "ArmatureAction.001",
            "samplers" : [
                {
                    "input" : 29,
                    "interpolation" : "LINEAR",
                    "output" : 30
                },
                {
                    "input" : 31,
                    "interpolation" : "LINEAR",
                    "output" : 32
                },
                {
                    "input" : 29,
                    "interpolation" : "LINEAR",
                    "output" : 33
                }
            ]
        }
    ],
    "materials" : [
        {
            "doubleSided" : true,
            "name" : "Skin",
            "pbrMetallicRoughness" : {
                "baseColorTexture" : {
                    "index" : 0
                },
                "metallicFactor" : 0,
                "roughnessFactor" : 0.5
            }
        },
        {
            "doubleSided" : true,
            "name" : "Clothes",
            "pbrMetallicRoughness" : {
                "baseColorFactor" : [
                    0.22857150435447693,
                    0.011171123012900352,
                    0.19067925214767456,
                    1
                ],
                "metallicFactor" : 0.12365591526031494,
                "roughnessFactor" : 0.6774193644523621
            }
        },
        {
            "doubleSided" : true,
            "name" : "Mouth",
            "pbrMetallicRoughness" : {
                "baseColorFactor" : [
                    0.019999999552965164,
                    0.019999999552965164,
                    0.019999999552965164,
                    1
                ],
                "metallicFactor" : 0,
                "roughnessFactor" : 0
            }
        },
        {
            "doubleSided" : true,
            "name" : "Head",
            "pbrMetallicRoughness" : {
                "baseColorFactor" : [
                    1,
                    0.7083758115768433,
                    0.41254284977912903,
                    1
                ],
                "metallicFactor" : 0,
                "roughnessFactor" : 0.6182795763015747
            }
        }
    ],
    "meshes" : [
        {
            "name" : "male",
            "primitives" : [
                {
                    "attributes" : {
                        "POSITION" : 0,
                        "NORMAL" : 1,
                        "TEXCOORD_0" : 2,
                        "COLOR_0" : 3,
                        "JOINTS_0" : 4,
                        "WEIGHTS_0" : 5
                    },
                    "indices" : 6,
                    "material" : 0
                },
                {
                    "attributes" : {
                        "POSITION" : 7,
                        "NORMAL" : 8,
                        "TEXCOORD_0" : 9,
                        "COLOR_0" : 10,
                        "JOINTS_0" : 11,
                        "WEIGHTS_0" : 12
                    },
                    "indices" : 13,
                    "material" : 1
                },
                {
                    "attributes" : {
                        "POSITION" : 14,
                        "NORMAL" : 15,
                        "TEXCOORD_0" : 16,
                        "COLOR_0" : 17,
                        "JOINTS_0" : 18,
                        "WEIGHTS_0" : 19
                    },
                    "indices" : 20,
                    "material" : 2
                },
                {
                    "attributes" : {
                        "POSITION" : 21,
                        "NORMAL" : 22,
                        "TEXCOORD_0" : 23,
                        "COLOR_0" : 24,
                        "JOINTS_0" : 25,
                        "WEIGHTS_0" : 26
                    },
                    "indices" : 27,
                    "material" : 3
                }
            ]
        }
    ],
    "textures" : [
        {
            "sampler" : 0,
            "source" : 0
        }
    ],
    "images" : [
        {
            "bufferView" : 7,
            "mimeType" : "image/png",
            "name" : "paceholder_texture"
        }
    ],
    "skins" : [
        {
            "inverseBindMatrices" : 28,
            "joints" : [
                3,
                2,
                0,
                1
            ],
            "name" : "Armature"
        }
    ],
    "accessors" : [
        {
            "bufferView" : 0,
            "componentType" : 5126,
            "count" : 127,
            "max" : [
                0.5471846461296082,
                1.1925926208496094,
                1.0069398880004883
            ],
            "min" : [
                -0.5471846461296082,
                0.10203170776367188,
                0.4979930520057678
            ],
            "type" : "VEC3"
        },
        {
            "bufferView" : 1,
            "componentType" : 5126,
            "count" : 127,
            "type" : "VEC3"
        },
        {
            "bufferView" : 2,
            "componentType" : 5126,
            "count" : 127,
            "type" : "VEC2"
        },
        {
            "bufferView" : 3,
            "componentType" : 5123,
            "count" : 127,
            "normalized" : true,
            "type" : "VEC4"
        },
        {
            "bufferView" : 4,
            "componentType" : 5121,
            "count" : 127,
            "type" : "VEC4"
        },
        {
            "bufferView" : 5,
            "componentType" : 5126,
            "count" : 127,
            "type" : "VEC4"
        },
        {
            "bufferView" : 6,
            "componentType" : 5123,
            "count" : 462,
            "type" : "SCALAR"
        },
        {
            "bufferView" : 8,
            "componentType" : 5126,
            "count" : 128,
            "max" : [
                1.8273286819458008,
                -0.12814044952392578,
                0.6461385488510132
            ],
            "min" : [
                -1.8273286819458008,
                -3.6792590618133545,
                -1.4615637063980103
            ],
            "type" : "VEC3"
        },
        {
            "bufferView" : 9,
            "componentType" : 5126,
            "count" : 128,
            "type" : "VEC3"
        },
        {
            "bufferView" : 10,
            "componentType" : 5126,
            "count" : 128,
            "type" : "VEC2"
        },
        {
            "bufferView" : 11,
            "componentType" : 5123,
            "count" : 128,
            "normalized" : true,
            "type" : "VEC4"
        },
        {
            "bufferView" : 12,
            "componentType" : 5121,
            "count" : 128,
            "type" : "VEC4"
        },
        {
            "bufferView" : 13,
            "componentType" : 5126,
            "count" : 128,
            "type" : "VEC4"
        },
        {
            "bufferView" : 14,
            "componentType" : 5123,
            "count" : 576,
            "type" : "SCALAR"
        },
        {
            "bufferView" : 15,
            "componentType" : 5126,
            "count" : 12,
            "max" : [
                0.22285151481628418,
                0.41810035705566406,
                0.8494855761528015
            ],
            "min" : [
                -0.2228516936302185,
                0.3986968994140625,
                0.7614624500274658
            ],
            "type" : "VEC3"
        },
        {
            "bufferView" : 16,
            "componentType" : 5126,
            "count" : 12,
            "type" : "VEC3"
        },
        {
            "bufferView" : 17,
            "componentType" : 5126,
            "count" : 12,
            "type" : "VEC2"
        },
        {
            "bufferView" : 18,
            "componentType" : 5123,
            "count" : 12,
            "normalized" : true,
            "type" : "VEC4"
        },
        {
            "bufferView" : 19,
            "componentType" : 5121,
            "count" : 12,
            "type" : "VEC4"
        },
        {
            "bufferView" : 20,
            "componentType" : 5126,
            "count" : 12,
            "type" : "VEC4"
        },
        {
            "bufferView" : 21,
            "componentType" : 5123,
            "count" : 24,
            "type" : "SCALAR"
        },
        {
            "bufferView" : 22,
            "componentType" : 5126,
            "count" : 141,
            "max" : [
                0.8742436170578003,
                2.0521297454833984,
                0.8168889880180359
            ],
            "min" : [
                -0.8742436170578003,
                -0.6554660797119141,
                -1.0966423749923706
            ],
            "type" : "VEC3"
        },
        {
            "bufferView" : 23,
            "componentType" : 5126,
            "count" : 141,
            "type" : "VEC3"
        },
        {
            "bufferView" : 24,
            "componentType" : 5126,
            "count" : 141,
            "type" : "VEC2"
        },
        {
            "bufferView" : 25,
            "componentType" : 5123,
            "count" : 141,
            "normalized" : true,
            "type" : "VEC4"
        },
        {
            "bufferView" : 26,
            "componentType" : 5121,
            "count" : 141,
            "type" : "VEC4"
        },
        {
            "bufferView" : 27,
            "componentType" : 5126,
            "count" : 141,
            "type" : "VEC4"
        },
        {
            "bufferView" : 28,
            "componentType" : 5123,
            "count" : 762,
            "type" : "SCALAR"
        },
        {
            "bufferView" : 29,
            "componentType" : 5126,
            "count" : 4,
            "type" : "MAT4"
        },
        {
            "bufferView" : 30,
            "componentType" : 5126,
            "count" : 2,
            "max" : [
                2.5
            ],
            "min" : [
                0
            ],
            "type" : "SCALAR"
        },
        {
            "bufferView" : 31,
            "componentType" : 5126,
            "count" : 2,
            "type" : "VEC3"
        },
        {
            "bufferView" : 32,
            "componentType" : 5126,
            "count" : 61,
            "max" : [
                2.5
            ],
            "min" : [
                0
            ],
            "type" : "SCALAR"
        },
        {
            "bufferView" : 33,
            "componentType" : 5126,
            "count" : 61,
            "type" : "VEC4"
        },
        {
            "bufferView" : 34,
            "componentType" : 5126,
            "count" : 2,
            "type" : "VEC3"
        }
    ],
    "bufferViews" : [
        {
            "buffer" : 0,
            "byteLength" : 1524,
            "byteOffset" : 0
        },
        {
            "buffer" : 0,
            "byteLength" : 1524,
            "byteOffset" : 1524
        },
        {
            "buffer" : 0,
            "byteLength" : 1016,
            "byteOffset" : 3048
        },
        {
            "buffer" : 0,
            "byteLength" : 1016,
            "byteOffset" : 4064
        },
        {
            "buffer" : 0,
            "byteLength" : 508,
            "byteOffset" : 5080
        },
        {
            "buffer" : 0,
            "byteLength" : 2032,
            "byteOffset" : 5588
        },
        {
            "buffer" : 0,
            "byteLength" : 924,
            "byteOffset" : 7620
        },
        {
            "buffer" : 0,
            "byteLength" : 59200,
            "byteOffset" : 8544
        },
        {
            "buffer" : 0,
            "byteLength" : 1536,
            "byteOffset" : 67744
        },
        {
            "buffer" : 0,
            "byteLength" : 1536,
            "byteOffset" : 69280
        },
        {
            "buffer" : 0,
            "byteLength" : 1024,
            "byteOffset" : 70816
        },
        {
            "buffer" : 0,
            "byteLength" : 1024,
            "byteOffset" : 71840
        },
        {
            "buffer" : 0,
            "byteLength" : 512,
            "byteOffset" : 72864
        },
        {
            "buffer" : 0,
            "byteLength" : 2048,
            "byteOffset" : 73376
        },
        {
            "buffer" : 0,
            "byteLength" : 1152,
            "byteOffset" : 75424
        },
        {
            "buffer" : 0,
            "byteLength" : 144,
            "byteOffset" : 76576
        },
        {
            "buffer" : 0,
            "byteLength" : 144,
            "byteOffset" : 76720
        },
        {
            "buffer" : 0,
            "byteLength" : 96,
            "byteOffset" : 76864
        },
        {
            "buffer" : 0,
            "byteLength" : 96,
            "byteOffset" : 76960
        },
        {
            "buffer" : 0,
            "byteLength" : 48,
            "byteOffset" : 77056
        },
        {
            "buffer" : 0,
            "byteLength" : 192,
            "byteOffset" : 77104
        },
        {
            "buffer" : 0,
            "byteLength" : 48,
            "byteOffset" : 77296
        },
        {
            "buffer" : 0,
            "byteLength" : 1692,
            "byteOffset" : 77344
        },
        {
            "buffer" : 0,
            "byteLength" : 1692,
            "byteOffset" : 79036
        },
        {
            "buffer" : 0,
            "byteLength" : 1128,
            "byteOffset" : 80728
        },
        {
            "buffer" : 0,
            "byteLength" : 1128,
            "byteOffset" : 81856
        },
        {
            "buffer" : 0,
            "byteLength" : 564,
            "byteOffset" : 82984
        },
        {
            "buffer" : 0,
            "byteLength" : 2256,
            "byteOffset" : 83548
        },
        {
            "buffer" : 0,
            "byteLength" : 1524,
            "byteOffset" : 85804
        },
        {
            "buffer" : 0,
            "byteLength" : 256,
            "byteOffset" : 87328
        },
        {
            "buffer" : 0,
            "byteLength" : 8,
            "byteOffset" : 87584
        },
        {
            "buffer" : 0,
            "byteLength" : 24,
            "byteOffset" : 87592
        },
        {
            "buffer" : 0,
            "byteLength" : 244,
            "byteOffset" : 87616
        },
        {
            "buffer" : 0,
            "byteLength" : 976,
            "byteOffset" : 87860
        },
        {
            "buffer" : 0,
            "byteLength" : 24,
            "byteOffset" : 88836
        }
    ],
    "samplers" : [
        {
            "magFilter" : 9729,
            "minFilter" : 9987
        }
    ],
    "buffers" : [
        {
            "byteLength" : 88860,
            "uri" : "data:application/octet-stream;base64,"
        }
    ]
}
