{
    "asset" : {
        "generator" : "Khronos glTF Blender I/O v1.7.33",
        "version" : "2.0"
    },
    "scene" : 0,
    "scenes" : [
        {
            "name" : "Scene",
            "nodes" : [
                0
            ]
        }
    ],
    "nodes" : [
        {
            "mesh" : 0,
            "name" : "male",
            "translation" : [
                0,
                -6.296776973613305e-06,
                0
            ]
        }
    ],
    "materials" : [
        {
            "doubleSided" : true,
            "name" : "Skin",
            "pbrMetallicRoughness" : {
                "baseColorTexture" : {
                    "index" : 0
                },
                "metallicFactor" : 0,
                "roughnessFactor" : 0.5
            }
        },
        {
            "doubleSided" : true,
            "name" : "Clothes",
            "pbrMetallicRoughness" : {
                "baseColorFactor" : [
                    0.22857150435447693,
                    0.011171123012900352,
                    0.19067925214767456,
                    1
                ],
                "metallicFactor" : 0.12365591526031494,
                "roughnessFactor" : 0.6774193644523621
            }
        },
        {
            "doubleSided" : true,
            "name" : "Mouth",
            "pbrMetallicRoughness" : {
                "baseColorFactor" : [
                    0.019999999552965164,
                    0.019999999552965164,
                    0.019999999552965164,
                    1
                ],
                "metallicFactor" : 0,
                "roughnessFactor" : 0
            }
        }
    ],
    "meshes" : [
        {
            "name" : "male",
            "primitives" : [
                {
                    "attributes" : {
                        "POSITION" : 0,
                        "NORMAL" : 1,
                        "TEXCOORD_0" : 2
                    },
                    "indices" : 3,
                    "material" : 0
                },
                {
                    "attributes" : {
                        "POSITION" : 4,
                        "NORMAL" : 5,
                        "TEXCOORD_0" : 6
                    },
                    "indices" : 7,
                    "material" : 1
                },
                {
                    "attributes" : {
                        "POSITION" : 8,
                        "NORMAL" : 9,
                        "TEXCOORD_0" : 10
                    },
                    "indices" : 11,
                    "material" : 2
                }
            ]
        }
    ],
    "textures" : [
        {
            "sampler" : 0,
            "source" : 0
        }
    ],
    "images" : [
        {
            "bufferView" : 4,
            "mimeType" : "image/png",
            "name" : "face"
        }
    ],
    "accessors" : [
        {
            "bufferView" : 0,
            "componentType" : 5126,
            "count" : 106,
            "max" : [
                1.6809557676315308,
                1.1925989389419556,
                1.0069398880004883
            ],
            "min" : [
                -1.6809557676315308,
                -3.691251277923584,
                -1.3933347463607788
            ],
            "type" : "VEC3"
        },
        {
            "bufferView" : 1,
            "componentType" : 5126,
            "count" : 106,
            "type" : "VEC3"
        },
        {
            "bufferView" : 2,
            "componentType" : 5126,
            "count" : 106,
            "type" : "VEC2"
        },
        {
            "bufferView" : 3,
            "componentType" : 5123,
            "count" : 492,
            "type" : "SCALAR"
        },
        {
            "bufferView" : 5,
            "componentType" : 5126,
            "count" : 231,
            "max" : [
                1.8273286819458008,
                2.052135944366455,
                0.8791801929473877
            ],
            "min" : [
                -1.8273286819458008,
                -3.691251277923584,
                -1.4615637063980103
            ],
            "type" : "VEC3"
        },
        {
            "bufferView" : 6,
            "componentType" : 5126,
            "count" : 231,
            "type" : "VEC3"
        },
        {
            "bufferView" : 7,
            "componentType" : 5126,
            "count" : 231,
            "type" : "VEC2"
        },
        {
            "bufferView" : 8,
            "componentType" : 5123,
            "count" : 1182,
            "type" : "SCALAR"
        },
        {
            "bufferView" : 9,
            "componentType" : 5126,
            "count" : 10,
            "max" : [
                0.22285166382789612,
                0.41810664534568787,
                0.8494855761528015
            ],
            "min" : [
                -0.22285154461860657,
                0.3987031877040863,
                0.7614624500274658
            ],
            "type" : "VEC3"
        },
        {
            "bufferView" : 10,
            "componentType" : 5126,
            "count" : 10,
            "type" : "VEC3"
        },
        {
            "bufferView" : 11,
            "componentType" : 5126,
            "count" : 10,
            "type" : "VEC2"
        },
        {
            "bufferView" : 12,
            "componentType" : 5123,
            "count" : 24,
            "type" : "SCALAR"
        }
    ],
    "bufferViews" : [
        {
            "buffer" : 0,
            "byteLength" : 1272,
            "byteOffset" : 0
        },
        {
            "buffer" : 0,
            "byteLength" : 1272,
            "byteOffset" : 1272
        },
        {
            "buffer" : 0,
            "byteLength" : 848,
            "byteOffset" : 2544
        },
        {
            "buffer" : 0,
            "byteLength" : 984,
            "byteOffset" : 3392
        },
        {
            "buffer" : 0,
            "byteLength" : 175347,
            "byteOffset" : 4376
        },
        {
            "buffer" : 0,
            "byteLength" : 2772,
            "byteOffset" : 179724
        },
        {
            "buffer" : 0,
            "byteLength" : 2772,
            "byteOffset" : 182496
        },
        {
            "buffer" : 0,
            "byteLength" : 1848,
            "byteOffset" : 185268
        },
        {
            "buffer" : 0,
            "byteLength" : 2364,
            "byteOffset" : 187116
        },
        {
            "buffer" : 0,
            "byteLength" : 120,
            "byteOffset" : 189480
        },
        {
            "buffer" : 0,
            "byteLength" : 120,
            "byteOffset" : 189600
        },
        {
            "buffer" : 0,
            "byteLength" : 80,
            "byteOffset" : 189720
        },
        {
            "buffer" : 0,
            "byteLength" : 48,
            "byteOffset" : 189800
        }
    ],
    "samplers" : [
        {
            "magFilter" : 9729,
            "minFilter" : 9987
        }
    ],
    "buffers" : [
        {
            "byteLength" : 189848,
            "uri" : "data:application/octet-stream;base64,"
        }
    ]
}
