{
    "asset" : {
        "generator" : "Khronos glTF Blender I/O v1.7.33",
        "version" : "2.0"
    },
    "scene" : 0,
    "scenes" : [
        {
            "name" : "Scene",
            "nodes" : [
                0
            ]
        }
    ],
    "nodes" : [
        {
            "mesh" : 0,
            "name" : "human",
            "translation" : [
                0,
                -6.296776973613305e-06,
                0
            ]
        }
    ],
    "materials" : [
        {
            "doubleSided" : true,
            "name" : "Skin",
            "pbrMetallicRoughness" : {
                "baseColorTexture" : {
                    "index" : 0
                },
                "metallicFactor" : 0,
                "roughnessFactor" : 0.5
            }
        },
        {
            "doubleSided" : true,
            "name" : "Clothes",
            "pbrMetallicRoughness" : {
                "baseColorFactor" : [
                    0.22857150435447693,
                    0.011171123012900352,
                    0.19067925214767456,
                    1
                ],
                "metallicFactor" : 0.12365591526031494,
                "roughnessFactor" : 0.6774193644523621
            }
        },
        {
            "doubleSided" : true,
            "name" : "Mouth",
            "pbrMetallicRoughness" : {
                "baseColorFactor" : [
                    0.019999999552965164,
                    0.019999999552965164,
                    0.019999999552965164,
                    1
                ],
                "metallicFactor" : 0,
                "roughnessFactor" : 0
            }
        },
        {
            "doubleSided" : true,
            "name" : "Head",
            "pbrMetallicRoughness" : {
                "baseColorFactor" : [
                    1,
                    0.7083758115768433,
                    0.41254284977912903,
                    1
                ],
                "metallicFactor" : 0,
                "roughnessFactor" : 0.6182795763015747
            }
        }
    ],
    "meshes" : [
        {
            "name" : "human",
            "primitives" : [
                {
                    "attributes" : {
                        "POSITION" : 0,
                        "NORMAL" : 1,
                        "TEXCOORD_0" : 2
                    },
                    "indices" : 3,
                    "material" : 0
                },
                {
                    "attributes" : {
                        "POSITION" : 4,
                        "NORMAL" : 5,
                        "TEXCOORD_0" : 6
                    },
                    "indices" : 7,
                    "material" : 1
                },
                {
                    "attributes" : {
                        "POSITION" : 8,
                        "NORMAL" : 9,
                        "TEXCOORD_0" : 10
                    },
                    "indices" : 11,
                    "material" : 2
                },
                {
                    "attributes" : {
                        "POSITION" : 12,
                        "NORMAL" : 13,
                        "TEXCOORD_0" : 14
                    },
                    "indices" : 15,
                    "material" : 3
                }
            ]
        }
    ],
    "textures" : [
        {
            "sampler" : 0,
            "source" : 0
        }
    ],
    "images" : [
        {
            "bufferView" : 4,
            "mimeType" : "image/png",
            "name" : "trying it out"
        }
    ],
    "accessors" : [
        {
            "bufferView" : 0,
            "componentType" : 5126,
            "count" : 120,
            "max" : [
                1.6809557676315308,
                1.1925989389419556,
                1.0069398880004883
            ],
            "min" : [
                -1.6809557676315308,
                -3.691251277923584,
                -1.3933347463607788
            ],
            "type" : "VEC3"
        },
        {
            "bufferView" : 1,
            "componentType" : 5126,
            "count" : 120,
            "type" : "VEC3"
        },
        {
            "bufferView" : 2,
            "componentType" : 5126,
            "count" : 120,
            "type" : "VEC2"
        },
        {
            "bufferView" : 3,
            "componentType" : 5123,
            "count" : 492,
            "type" : "SCALAR"
        },
        {
            "bufferView" : 5,
            "componentType" : 5126,
            "count" : 106,
            "max" : [
                1.8273286819458008,
                0.6426512002944946,
                0.8791801929473877
            ],
            "min" : [
                -1.8273286819458008,
                -3.691251277923584,
                -1.4615637063980103
            ],
            "type" : "VEC3"
        },
        {
            "bufferView" : 6,
            "componentType" : 5126,
            "count" : 106,
            "type" : "VEC3"
        },
        {
            "bufferView" : 7,
            "componentType" : 5126,
            "count" : 106,
            "type" : "VEC2"
        },
        {
            "bufferView" : 8,
            "componentType" : 5123,
            "count" : 426,
            "type" : "SCALAR"
        },
        {
            "bufferView" : 9,
            "componentType" : 5126,
            "count" : 10,
            "max" : [
                0.22285166382789612,
                0.41810664534568787,
                0.8494855761528015
            ],
            "min" : [
                -0.22285154461860657,
                0.3987031877040863,
                0.7614624500274658
            ],
            "type" : "VEC3"
        },
        {
            "bufferView" : 10,
            "componentType" : 5126,
            "count" : 10,
            "type" : "VEC3"
        },
        {
            "bufferView" : 11,
            "componentType" : 5126,
            "count" : 10,
            "type" : "VEC2"
        },
        {
            "bufferView" : 12,
            "componentType" : 5123,
            "count" : 24,
            "type" : "SCALAR"
        },
        {
            "bufferView" : 13,
            "componentType" : 5126,
            "count" : 141,
            "max" : [
                0.8742436170578003,
                2.052135944366455,
                0.8168889880180359
            ],
            "min" : [
                -0.8742434978485107,
                -0.6554597616195679,
                -1.0966423749923706
            ],
            "type" : "VEC3"
        },
        {
            "bufferView" : 14,
            "componentType" : 5126,
            "count" : 141,
            "type" : "VEC3"
        },
        {
            "bufferView" : 15,
            "componentType" : 5126,
            "count" : 141,
            "type" : "VEC2"
        },
        {
            "bufferView" : 16,
            "componentType" : 5123,
            "count" : 756,
            "type" : "SCALAR"
        }
    ],
    "bufferViews" : [
        {
            "buffer" : 0,
            "byteLength" : 1440,
            "byteOffset" : 0
        },
        {
            "buffer" : 0,
            "byteLength" : 1440,
            "byteOffset" : 1440
        },
        {
            "buffer" : 0,
            "byteLength" : 960,
            "byteOffset" : 2880
        },
        {
            "buffer" : 0,
            "byteLength" : 984,
            "byteOffset" : 3840
        },
        {
            "buffer" : 0,
            "byteLength" : 59200,
            "byteOffset" : 4824
        },
        {
            "buffer" : 0,
            "byteLength" : 1272,
            "byteOffset" : 64024
        },
        {
            "buffer" : 0,
            "byteLength" : 1272,
            "byteOffset" : 65296
        },
        {
            "buffer" : 0,
            "byteLength" : 848,
            "byteOffset" : 66568
        },
        {
            "buffer" : 0,
            "byteLength" : 852,
            "byteOffset" : 67416
        },
        {
            "buffer" : 0,
            "byteLength" : 120,
            "byteOffset" : 68268
        },
        {
            "buffer" : 0,
            "byteLength" : 120,
            "byteOffset" : 68388
        },
        {
            "buffer" : 0,
            "byteLength" : 80,
            "byteOffset" : 68508
        },
        {
            "buffer" : 0,
            "byteLength" : 48,
            "byteOffset" : 68588
        },
        {
            "buffer" : 0,
            "byteLength" : 1692,
            "byteOffset" : 68636
        },
        {
            "buffer" : 0,
            "byteLength" : 1692,
            "byteOffset" : 70328
        },
        {
            "buffer" : 0,
            "byteLength" : 1128,
            "byteOffset" : 72020
        },
        {
            "buffer" : 0,
            "byteLength" : 1512,
            "byteOffset" : 73148
        }
    ],
    "samplers" : [
        {
            "magFilter" : 9729,
            "minFilter" : 9987
        }
    ],
    "buffers" : [
        {
            "byteLength" : 74660,
            "uri" : "data:application/octet-stream;base64,"
        }
    ]
}
